<?xml version="1.0" encoding="UTF-8"?>
<svg id="Camada_2" data-name="Camada 2" xmlns="http://www.w3.org/2000/svg" viewBox="0 0 590.8 183.87">
  <defs>
    <style>
      .cls-1 {
        letter-spacing: .8em;
      }

      .cls-2 {
        letter-spacing: .8em;
      }

      .cls-3 {
        font-family: Helvena-Lt, Helvena;
        font-size: 45px;
      }

      .cls-4 {
        letter-spacing: .8em;
      }

      .cls-5 {
        letter-spacing: .78em;
      }
    </style>
  </defs>
  <g id="vecotre">
    <path d="M348.77,73.94V.65h-20.07v71.15c0,9.82-4.88,19.01-13.02,24.51l-.66.44c-11.17,7.55-26.04,6.59-36.15-2.35h0c-6.35-5.61-9.99-13.68-9.99-22.16V.65h-20.13v77.94h0c0,22.45,18.2,40.65,40.65,40.65h14.06c25.01,0,45.29-20.28,45.29-45.29h0Z"/>
  </g>
  <g id="Camada_2-2" data-name="Camada 2">
    <g id="uuid-8da32283-dff3-40ef-82c4-36d1b6e35ac7" data-name="Camada 2-2">
      <g id="Camada_1-2" data-name="Camada 1-2">
        <g id="bauny">
          <path d="M0,48.85h25.11V.11h64.25c.86,0,11.76,4.67,13.56,5.64,14.88,8.01,19.79,25.68,9.98,40.05-2.89,4.23-7.01,5.98-10.04,8.83-1.24,1.17-1.35,1.01-.94,3.06,26.7,6.07,30.38,40.22,7.21,53.76-1.42.83-11.71,5.34-12.39,5.34H25.11v-48.74H0v-19.2H0ZM45.79,48.85h39.14c.94,0,7.75-4.52,8.83-5.93,8.03-10.53-1.28-25.08-13.26-25.08h-34.71v31.02h0ZM45.79,99.07h43.57c12.1,0,20-18.62,9.53-27.26-9.43-7.78-40.59-4.24-53.1-5.24v32.49h0Z"/>
          <path d="M444.58,79.87V.11h20.68v116.68l-18.57-1.37c-20.87-24.09-38.68-54.06-59.98-77.38-1.32-1.45-1.31-3.15-4.16-2.48v81.24h-19.2V.11l20.04,1.37,61.19,78.39h0Z"/>
          <path d="M125.55,116.79L177.92,0l18.36.28,50.38,116.51h-22.16l-11.28-26.39-56.84.67-10.17,25.71h-20.68.02ZM203.83,71.01c-5.66-15.3-11.16-32.22-20.66-45.78l-19.22,45.78h39.88Z"/>
          <path d="M590.8.11l-47.26,71.63v45.05h-20.68v-46.53c0-3.32-31.01-48.76-35.46-56.11-2.54-4.2-5.46-9.52-7.37-14.05h22.89l31.02,51.67L567.91.11h22.89Z"/>
        </g>
      </g>
    </g>
    <text class="cls-3" transform="translate(6.79 173.65)"><tspan class="cls-1" x="0" y="0">c</tspan><tspan class="cls-2" x="63" y="0">o</tspan><tspan class="cls-1" x="129.64" y="0">sm</tspan><tspan class="cls-5" x="267.39" y="0">é</tspan><tspan class="cls-1" x="329.13" y="0">tic</tspan><tspan class="cls-4" x="488.43" y="0">o</tspan><tspan class="cls-1" x="555.07" y="0">s</tspan></text>
  </g>
</svg>