<?xml version="1.0" encoding="UTF-8"?>
<svg id="Camada_2" data-name="Camada 2" xmlns="http://www.w3.org/2000/svg" viewBox="0 0 588.96 175">
  <g id="Camada_1-2" data-name="Camada 1">
    <g id="pokoloka">
      <path d="M0,106.04c1.13-28.72,31.53-47.28,57.45-32.96,27.77,15.35,25.54,56.64-3.66,69.05-15.69,6.67-33.17,2.26-44.37-10.23v43.1H0v-68.96ZM34.99,77.39c-20.7,1.99-32.12,26.13-21.96,43.98,11.23,19.74,39.94,19.79,51.18.09,12.2-21.37-4.87-46.41-29.22-44.07Z"/>
      <path d="M581.38,145.22h-8.89v-13.32c-.46-.11-.52.19-.79.39-3.47,2.65-5.2,5.34-9.5,7.75-35.13,19.73-72.58-21.34-50.29-54.41,20.32-30.16,67.48-16.85,69.48,19.48v40.1ZM541.05,77.91c-21.07,1.63-33.34,24.83-23.1,43.29,11.03,19.88,39.96,19.83,50.92-.09,11.19-20.33-4.74-44.98-27.82-43.19Z"/>
      <path d="M389.36,67.72c28.04-1.78,45.9,22.74,39.68,49.29-8.75,37.35-64.91,37.5-73.92.42-5.92-24.37,8.35-48.07,34.24-49.72ZM388.58,76.61c-19.18,1.7-29.06,20.94-24.66,38.58,6.85,27.48,48.34,28.03,55.97.78,6-21.44-8.5-41.38-31.3-39.36Z"/>
      <path d="M274.03,67.72c28.64-1.93,46.73,23.96,39.35,50.79-9.98,36.26-65.4,35.29-73.69-1.76-5.43-24.25,8.7-47.3,34.34-49.03ZM273.25,76.61c-19.02,1.68-28.72,20.58-24.72,38.11,6.36,27.86,48.49,28.68,56.08,1.31,5.97-21.55-8.45-41.44-31.36-39.42Z"/>
      <path d="M124.7,67.72c27.26-1.72,44.67,21.25,39.98,47.25-7.16,39.69-66.22,40.21-74.54,1.47-5.2-24.24,8.96-47.11,34.55-48.72ZM123.65,76.61c-19.85,1.91-29.88,23-23.82,40.87,8.83,26.02,49.41,24.51,55.65-2.81,4.86-21.26-9.43-40.21-31.83-38.06Z"/>
      <path d="M454.01,38.39v61.12l.79-.39,32.56-30.17h10.85c.3,1.67-.37,2.12-1.43,3.14-10.51,10.12-21.82,19.49-32.31,29.64-.42.4-2.65,2.49-2.59,2.84,1.95,1.97,3.97,3.9,5.99,5.79,10.67,9.96,21.77,19.54,32.31,29.64,1.33,1.27,2.66,2.12,2.22,4.19h-10.33l-37.27-34.09-.79-.39v34.48h-8.76l-.39-.39V38.39h9.15Z"/>
      <path d="M189.35,38.39v61.12l32.96-30.42,11-.02c.45.32.35,1.63-.13,2l-36.23,33.51,40.65,37.51c.23.78.43,1.91-.52,2.09-1.23.23-7.81.2-9.17.01-.29-.04-.56-.07-.79-.25l-37.77-34.24v34.09l-.39.39h-8.37l-.39-.39V38.39h9.15Z"/>
      <path d="M551.64,24.22c1.02.9,3.31-1.77,3.98-2.54,2.5-2.89,3.37-7.44,5.48-10.98.17-.28.26-.72.66-.78,0,2.39.01,4.8.01,7.19,0,2.52-.05,3.28.99,5.78,1.69,4.07,2.2,3.66,5.81,1.79s7.42-4.81,10.33-7.44c2.15-1.94,5.12-4.5,5.77-7.3l4.29-4.98c-.26,1.85-.54,5.01-1.29,6.68-.49,1.09-2.18,2.32-2.83,3.44l-11.82,32.6-58.69.08-11.8-32.36c-.7-1.39-2.37-2.47-2.96-3.84-.85-1.98-.96-4.77-1.62-6.87,1.14,1.56,3.7,3.65,4.55,5.24.4.74.34,1.56.81,2.32,2.13,3.42,13.35,11.91,17.2,13.38,2.01.77,2.35.49,3.36-1.44,1.38-2.63,1.51-4.29,1.51-7.09v-7.19c.41.06.5.49.67.78.61,1.02,2.79,4.92,3.06,5.82.8,2.68.38,2.8,2.42,5.15.8.92,3.03,3.64,4.17,2.34.75-.85,2.03-3.62,2.54-4.78s2.85-7.04,2.77-7.84c-.06-.63-1.24-2.17-1.18-2.87l3.86-8.53,3.55,8.35c.17,1.05-.85,2-1.02,2.94s2.09,6.69,2.66,7.96c.45,1,2.07,4.39,2.74,4.98ZM543.72,45.71l3.94-16.58-4.07-16.59-4.07,16.59c1.21,4.98,2.29,10.01,3.6,14.97.12.44.16,1.47.6,1.62ZM553.39,45.71c.4-.06.49-.49.66-.78.65-1.09,5.09-9.25,5.09-9.8v-11.88c-.4.06-.49.49-.66.78-.64,1.07-5.09,9.25-5.09,9.8v11.88ZM523.05,44.92c-1.37-4.04-3.35-7.9-5.01-11.84l-7.8-9.58,4.86,11.46,7.95,9.95ZM528.03,23.51v11.62c0,.55,4.45,8.73,5.09,9.8.17.29.26.72.66.78v-11.88c0-.56-4.54-9.01-5.17-9.98-.17-.26.03-.46-.59-.34ZM564.38,44.4c.32-.08.56-.42.77-.66,5.66-6.37,8.27-11.26,11.48-19.09.16-.38.38-.7.29-1.14l-7.85,9.79-4.7,11.11Z"/>
      <polygon points="338.94 143.4 329.79 143.4 329.79 39.05 330.18 38.66 338.55 38.66 338.94 39.05 338.94 143.4"/>
      <path d="M514.35,50.72l58.02-.07c1.28.17,2.78,2.5,3.53,3.54,0,.26-2.5,3.47-3.27,3.28h-58.09c-.77.19-3.26-3.02-3.26-3.28l3.07-3.47Z"/>
    </g>
  </g>
</svg>