<?xml version="1.0" encoding="UTF-8"?>
<svg id="Camada_2" data-name="Camada 2" xmlns="http://www.w3.org/2000/svg" viewBox="0 0 911.2 175">
  <g id="Camada_1-2" data-name="Camada 1">
    <g id="vernisage">
      <path d="M200.11,2.66c12.44.57,25.54-.76,37.9-.02,19.3,1.15,39.31,11.81,33.3,34.37-3.45,12.93-17.84,17.81-29.4,20.74l42.32,52.24-18.57,1.87-36.82-52.8h-12.54v50.66h-16.2V2.66ZM216.31,53.84h15.41c19.83,0,30.86-20.57,18.98-36.73-8.54-11.61-22.32-8.01-34.39-5.57v42.3Z"/>
      <path d="M315.58,2.66l61.65,77.81V3.45c1.81-1.6,4.99-.46,7.31-.78v109.15l-2.24-.11-71.95-88.67v86.69h-7.31V3.45l.78-.78h11.76Z"/>
      <path d="M819.25,106.59c-28.23,9.71-69.97,7.77-86.43-20.93-12.82-22.35-6.62-54.53,13.56-70.45,20.14-15.89,46.42-17.73,70.22-9.37l-1.53,10.92c-9.61-3.43-20.27-8.07-30.57-8.87-16.48-1.28-31.9,13.3-37.36,27.92-5.59,14.98-4.92,36.11,3.25,50.05,11.02,18.79,33.06,23.03,53.19,18.64v-40.73h15.67v42.82Z"/>
      <path d="M909.9,2.66c.54.39.57.46.57,1.07.02,2.86-1.71,6.81-1.35,9.9-15.79-1.2-32.2-8.42-47.55-1.83v38.91h35.53v6.27h-35.53v47l49.63-5.22-1.04,10.97h-64.79V3.45l.78-.78h63.74Z"/>
      <path d="M173.99,2.66l-1.04,10.97c-15.8-1.11-32.21-8.51-47.55-1.83v38.91h35.53v6.27h-35.53v47l49.63-5.22-1.13,10.1-.7.87h-64V2.66h64.79Z"/>
      <path d="M624.37,109.72L672.42.31l1.85-.31,48.32,109.72h-17.76l-12.26-28.76-47.77.1-11.82,28.66h-8.62ZM690.2,74.73l-21.42-51.7-20.91,51.7h42.32Z"/>
      <path d="M454.04,98.23c10.39,3.84,20.06,8.68,31.54,7.77,14.43-1.15,25.79-13.32,19.67-27.89-8.65-20.58-60.57-24.48-49-58.35,8.24-24.11,41.34-20.33,60.44-13.92l-1.53,10.93c-10.14-3.32-20.82-8.15-31.61-8.87-5.55-.37-8.71-.15-11.85,4.85-13.06,20.78,23.19,35.04,35.49,43.59,12.82,8.91,20.66,21.42,13.98,37.19-10.31,24.33-47.21,19.89-67.13,12.02v-7.31Z"/>
      <path d="M543.9,98.23c10.39,3.84,20.06,8.68,31.54,7.77,9.38-.75,18.05-5.51,20.36-15.16,5.6-23.43-26.7-30-40.13-41.71-11.7-10.19-15.29-25.47-4.47-37.86,13.43-15.37,38.1-10.42,55.39-5.45l-1.56,10.95c-7.16-2.3-14.04-5.37-21.41-7.06-4.2-.96-12.9-2.7-16.86-1.69-4.51,1.15-7.82,9.41-7.72,13.68.66,27.84,62.1,29.64,53.59,67.15-6.54,28.83-47.79,25.41-68.72,16.69v-7.31Z"/>
      <polygon points="17.76 2.66 53.03 89.88 85.43 2.66 93 2.66 50.35 112.26 48.32 112.38 0 2.66 17.76 2.66"/>
      <rect x="413.81" y="2.66" width="14.63" height="107.06"/>
      <path d="M640.56,147.32l7.58,20.37c3.12-5.77,4.54-12.99,7.31-18.81.29-.61.53-1.43,1.3-1.57l5.75,26.11-3.08-.05c-1.32-4.82-1.73-10.61-3.24-15.3-.19-.58-.17-1.26-.99-1.35l-7.31,18.27-7.06-18.28-3.86,16.42-2.67.3c1.58-8.46,3.32-16.93,5.23-25.33.18-.81-.35-.91,1.03-.78Z"/>
      <path d="M740.1,148.37c5.78.96,8.22,9.31,3.94,13.34l-4.72,2.58,7.31,9.14c-7.08,1.6-7.27-10.39-13.58-9.92v9.92h-3.13v-24.28l.78-.78c2.89.33,6.66-.46,9.4,0ZM733.04,150.98v9.92h7.58c.9,0,2.57-2.51,2.75-3.52,1.21-6.9-5.32-6.69-10.33-6.41Z"/>
      <path d="M317.41,148.37c8.62,1.43,8.42,14.82-.78,15.4l7.31,9.66c-6.94,1.57-7.11-10.43-13.58-9.92v9.92h-2.61v-25.07c2.96.34,6.85-.47,9.67,0ZM310.35,160.9h7.58c3.12,0,4.86-8.57-.63-9.81-2.09-.47-4.77.11-6.94-.11v9.92Z"/>
      <path d="M518.04,148.37c8.6,1.43,8.31,14.81-.78,15.4l7.31,9.66c-1.17-.06-2.58.28-3.66-.25-2.58-1.26-5.46-10.89-9.92-9.67v9.92h-2.61v-25.07c2.96.34,6.84-.47,9.67,0ZM510.99,160.9h7.58c3.12,0,4.86-8.57-.63-9.81-2.09-.47-4.77.11-6.94-.11v9.92Z"/>
      <polygon points="817.68 148.37 817.68 150.98 805.67 150.98 805.67 159.86 817.68 159.86 816.9 162.47 805.67 162.47 805.67 171.35 817.68 171.35 817.68 173.44 802.53 173.44 802.53 149.15 803.32 148.37 817.68 148.37"/>
      <path d="M590.4,148.37c1.02.02,2.66-.35,3.06.86.65,5.59-.61,12.25.05,17.7.57,4.72,7.61,5.44,10.97,3.09.53-.37,2.11-2.16,2.11-2.59v-19.06h2.61v19.58c0,.31-1.29,2.64-1.64,3.06-3.8,4.56-13.42,3.97-16.07-1.55-.2-.43-1.1-2.88-1.1-3.08v-18.02Z"/>
      <path d="M482.77,173.43l-3.07-.06-2.09-6.42-10.7-.24c-2.51,2.5-1.23,8.02-6.08,6.71l11.24-26.63,10.71,26.63ZM475.98,164.04l-3.66-10.44c-.73-.58-4.19,9.65-4.7,10.44h8.36Z"/>
      <path d="M225.72,158.81l1.08-.32c1.49-2.07,6.52-12.6,9.88-10.11l-8.71,12.79,8.71,12.27c-1.11-.09-2.68.33-3.65-.26-1.42-.85-4.73-8.16-6.54-9.66-1.42-.35-5.7,8.84-7.05,9.66-.98.59-2.54.17-3.65.26l8.73-12.27-8.73-12.79c3.35-2.44,8.67,8.21,9.94,10.44Z"/>
      <polygon points="702.74 148.37 702.74 150.98 690.2 150.98 690.2 159.86 702.22 159.86 702.22 162.47 690.2 162.47 690.2 170.56 690.98 171.35 702.74 171.35 702.74 173.44 687.59 173.44 687.59 148.37 702.74 148.37"/>
      <path d="M174.51,148.37v18.54c0,4.29,8.33,5.43,11.49,3.13.68-.49,2.1-3.05,2.1-3.65v-18.02h2.61v19.06c0,.21-1.07,2.46-1.33,2.85-3.33,4.89-12.85,5.07-16.15,0-.27-.41-1.33-2.63-1.33-2.85v-19.06h2.61Z"/>
      <path d="M264.38,148.37v18.54c0,.31,1.61,2.77,2.1,3.13,2.22,1.61,6.75,1.6,9.07.21.68-.41,2.41-2.85,2.41-3.33v-18.54h2.61v19.06c0,.21-1.07,2.46-1.33,2.85-3.33,4.89-12.9,5-16.15,0-.27-.41-1.33-2.63-1.33-2.85v-19.06h2.61Z"/>
      <path d="M426.87,173.44h-2.61v-25.07h9.67c.22,0,2.44,1.06,2.85,1.33,4.22,2.74,4.99,8.6,1.08,12-3.81,3.31-7.21.59-10.99,2.6v9.14ZM426.87,160.9h7.58c.86,0,2.53-2,2.76-2.98,1.75-7.63-4.86-7.2-10.34-6.94v9.92Z"/>
      <polygon points="565.33 148.37 565.33 150.98 553.31 150.98 553.31 159.86 565.33 159.86 564.54 162.47 553.31 162.47 553.31 173.44 550.7 173.44 550.7 148.37 565.33 148.37"/>
      <path d="M356.85,161.69c-.34-1.56-9.77-12.52-8.88-13.31.76.05,1.63-.15,2.35,0,1.78.35,7.01,10.19,7.84,10.45.95.3.71-.38.93-.66,1.21-1.6,5.72-8.96,6.65-9.52s2.14-.21,3.13-.26c.39.33-1.8,3.26-2.18,3.82-.91,1.35-6.7,8.41-6.7,8.97v12.27h-3.13c-.5-3.37.68-8.65,0-11.75Z"/>
      <polygon points="137.94 148.37 137.94 170.83 146.82 170.83 146.82 173.44 135.32 173.44 135.32 148.37 137.94 148.37"/>
      <path d="M775.36,148.37v25.07h-3.13v-24.28c.72-1.06,2.01-.8,3.13-.78Z"/>
    </g>
  </g>
</svg>